<svg width="26" height="26" viewBox="0 0 26 26" fill="none" xmlns="http://www.w3.org/2000/svg">
<path d="M13 0C13.431 0 13.8443 0.171205 14.149 0.475952C14.4538 0.780698 14.625 1.19402 14.625 1.625V11.375H24.375C24.806 11.375 25.2193 11.5462 25.524 11.851C25.8288 12.1557 26 12.569 26 13C26 13.431 25.8288 13.8443 25.524 14.149C25.2193 14.4538 24.806 14.625 24.375 14.625H14.625V24.375C14.625 24.806 14.4538 25.2193 14.149 25.524C13.8443 25.8288 13.431 26 13 26C12.569 26 12.1557 25.8288 11.851 25.524C11.5462 25.2193 11.375 24.806 11.375 24.375V14.625H1.625C1.19402 14.625 0.780698 14.4538 0.475952 14.149C0.171205 13.8443 0 13.431 0 13C0 12.569 0.171205 12.1557 0.475952 11.851C0.780698 11.5462 1.19402 11.375 1.625 11.375H11.375V1.625C11.375 1.19402 11.5462 0.780698 11.851 0.475952C12.1557 0.171205 12.569 0 13 0Z" fill="url(#paint0_linear_1292_3580)"/>
<defs>
<linearGradient id="paint0_linear_1292_3580" x1="22.0989" y1="-35.4117" x2="-16.9851" y2="-27.8114" gradientUnits="userSpaceOnUse">
<stop stop-color="#D39CFF"/>
<stop offset="0.549209" stop-color="#B4C5FE" stop-opacity="0.852278"/>
<stop offset="0.856527" stop-color="#93F1FE" stop-opacity="0.695417"/>
<stop offset="1" stop-color="#F0DEFF" stop-opacity="0.32"/>
</linearGradient>
</defs>
</svg>
