<svg width="14" height="17" viewBox="0 0 14 17" fill="none" xmlns="http://www.w3.org/2000/svg">
<path d="M11.8298 2.19377C10.1263 0.21015 7.35229 0.21015 5.65063 2.19377L0.930823 7.68557C0.900081 7.72137 0.883806 7.7698 0.883806 7.82034C0.883806 7.87088 0.900081 7.91931 0.930823 7.95511L1.59811 8.73213C1.62861 8.7675 1.6699 8.78735 1.71294 8.78735C1.75598 8.78735 1.79727 8.7675 1.82777 8.73213L6.54757 3.24033C7.13348 2.55806 7.91288 2.18324 8.7411 2.18324C9.56933 2.18324 10.3487 2.55806 10.9328 3.24033C11.5187 3.92259 11.8406 4.83017 11.8406 5.7925C11.8406 6.75694 11.5187 7.66241 10.9328 8.34468L6.12261 13.9439L5.34321 14.8515C4.61444 15.7001 3.42997 15.7001 2.7012 14.8515C2.34857 14.4408 2.15508 13.8954 2.15508 13.3143C2.15508 12.7331 2.34857 12.1877 2.7012 11.7771L7.47345 6.22208C7.59461 6.0831 7.75374 6.00518 7.92373 6.00518H7.92554C8.09552 6.00518 8.25285 6.0831 8.3722 6.22208C8.49336 6.36316 8.55846 6.54847 8.55846 6.74641C8.55846 6.94224 8.49155 7.12755 8.3722 7.26653L4.47158 11.8044C4.44084 11.8402 4.42456 11.8887 4.42456 11.9392C4.42456 11.9897 4.44084 12.0382 4.47158 12.074L5.13886 12.851C5.16936 12.8863 5.21065 12.9062 5.25369 12.9062C5.29673 12.9062 5.33802 12.8863 5.36852 12.851L9.26733 8.31098C9.6272 7.89194 9.82431 7.33602 9.82431 6.7443C9.82431 6.15259 9.62539 5.59456 9.26733 5.17762C8.5241 4.31216 7.31612 4.31426 6.57289 5.17762L6.10995 5.7188L1.80245 10.7326C1.51009 11.071 1.27835 11.4737 1.12066 11.9172C0.962961 12.3608 0.882455 12.8363 0.883806 13.3164C0.883806 14.2913 1.21112 15.2073 1.80245 15.8959C2.41548 16.6077 3.21839 16.9635 4.0213 16.9635C4.82421 16.9635 5.62712 16.6077 6.23834 15.8959L11.8298 9.38913C12.6526 8.42891 13.1083 7.15071 13.1083 5.7925C13.1101 4.43219 12.6544 3.15399 11.8298 2.19377Z" fill="#7190FE"/>
</svg>
