<svg width="15" height="14" viewBox="0 0 15 14" fill="none" xmlns="http://www.w3.org/2000/svg">
<path d="M6.73952 12.5119L6.73879 12.5113C4.82949 10.8194 3.28584 9.45047 2.21349 8.16932C1.14651 6.89458 0.601562 5.77009 0.601562 4.57605C0.601562 2.64331 2.15152 1.1123 4.15781 1.1123C5.29393 1.1123 6.38897 1.63154 7.09961 2.44702L7.47656 2.87958L7.85352 2.44702C8.56416 1.63154 9.6592 1.1123 10.7953 1.1123C12.8016 1.1123 14.3516 2.64331 14.3516 4.57605C14.3516 5.77009 13.8066 6.89461 12.7395 8.17035C11.6674 9.45215 10.1242 10.8225 8.21556 12.5174L8.21502 12.5179L8.21394 12.5188L7.47782 13.1687L6.73952 12.5119Z" stroke="#FFBAE8"/>
</svg>
