<svg width="49" height="48" viewBox="0 0 49 48" fill="none" xmlns="http://www.w3.org/2000/svg">
<path d="M23.356 33.9347L23.3538 33.9328C19.6009 30.6073 16.6095 27.9526 14.5381 25.4779C12.4829 23.0225 11.5 20.9344 11.5 18.7689C11.5 15.2792 14.2937 12.5 17.9503 12.5C20.024 12.5 22.0282 13.4506 23.3241 14.9376L24.455 16.2353L25.5859 14.9376C26.8818 13.4506 28.886 12.5 30.9598 12.5C34.6163 12.5 37.41 15.2792 37.41 18.7689C37.41 20.9345 36.4271 23.0226 34.3715 25.4801C32.3001 27.9566 29.3089 30.6144 25.5562 33.9468C25.5558 33.9472 25.5554 33.9476 25.555 33.9479L24.4588 34.9157L23.356 33.9347Z" stroke="#FFBAE8" stroke-width="3"/>
</svg>
