<svg width="29" height="27" viewBox="0 0 29 27" fill="none" xmlns="http://www.w3.org/2000/svg">
<path d="M24.1667 18.7292C23.0188 18.7292 21.9594 19.0735 21.1297 19.6485L12.7842 14.4876C12.9239 13.832 12.9239 13.1602 12.7842 12.5045L21.1297 7.34365C21.9594 7.91861 23.0188 8.2629 24.1667 8.2629C26.8331 8.2629 29 6.41063 29 4.13145C29 1.85227 26.8331 0 24.1667 0C21.5003 0 19.3333 1.85227 19.3333 4.13145C19.3333 4.53082 19.3978 4.91298 19.5226 5.27792L11.596 10.184C10.4199 8.85163 8.55097 7.98747 6.44444 7.98747C2.88389 7.98747 0 10.4526 0 13.4961C0 16.5396 2.88389 19.0047 6.44444 19.0047C8.55097 19.0047 10.4199 18.1405 11.596 16.8081L19.5226 21.7142C19.3978 22.0791 19.3333 22.4647 19.3333 22.8607C19.3333 25.1399 21.5003 26.9921 24.1667 26.9921C26.8331 26.9921 29 25.1399 29 22.8607C29 20.5815 26.8331 18.7292 24.1667 18.7292ZM24.1667 2.34115C25.3226 2.34115 26.2611 3.14334 26.2611 4.13145C26.2611 5.11955 25.3226 5.92174 24.1667 5.92174C23.0107 5.92174 22.0722 5.11955 22.0722 4.13145C22.0722 3.14334 23.0107 2.34115 24.1667 2.34115ZM6.44444 16.5258C4.49097 16.5258 2.9 15.1659 2.9 13.4961C2.9 11.8263 4.49097 10.4663 6.44444 10.4663C8.39792 10.4663 9.98889 11.8263 9.98889 13.4961C9.98889 15.1659 8.39792 16.5258 6.44444 16.5258ZM24.1667 24.651C23.0107 24.651 22.0722 23.8488 22.0722 22.8607C22.0722 21.8726 23.0107 21.0704 24.1667 21.0704C25.3226 21.0704 26.2611 21.8726 26.2611 22.8607C26.2611 23.8488 25.3226 24.651 24.1667 24.651Z" fill="black"/>
</svg>
