<svg width="56" height="40" viewBox="0 0 56 40" fill="none" xmlns="http://www.w3.org/2000/svg">
<path d="M10.096 1.93476C12.907 4.15423 13.5002 8.38596 11.421 11.3866C9.3418 14.3872 5.37749 15.0205 2.56648 12.801C-0.244534 10.5815 -0.837772 6.34981 1.24144 3.34918C3.32066 0.348547 7.28498 -0.284708 10.096 1.93476Z" fill="url(#paint0_linear_1292_3809)"/>
<path d="M9.93897 19.1025C10.0431 18.3339 10.334 17.6676 10.825 17.1704C11.3232 16.6661 11.9732 16.3905 12.7107 16.3251C13.3795 16.0471 14.1253 15.8898 14.9125 15.8851L25.4155 15.823C28.3158 15.8059 30.6777 17.8679 30.691 20.4286C30.7043 22.9894 28.3639 25.0792 25.4636 25.0963L25.4505 25.0964L23.8628 25.1058L28.6169 30.4562C31.3121 33.4895 32.086 37.3771 30.3454 39.1393C28.6049 40.9016 25.009 39.8712 22.3138 36.8379L12.5536 25.8535C11.8994 25.1173 11.3584 24.3307 10.9391 23.5365C10.1622 22.7337 9.69094 21.6927 9.68503 20.5528C9.6824 20.0469 9.77166 19.5593 9.93897 19.1025Z" fill="url(#paint1_linear_1292_3809)"/>
<path d="M55.7684 20.5624C55.6767 21.3327 55.3965 22.0042 54.9136 22.5103C54.4236 23.0237 53.7781 23.3112 53.0418 23.3901C52.3776 23.6802 51.6344 23.8512 50.8474 23.8703L40.347 24.1248C37.4473 24.1951 35.0526 22.1767 34.9981 19.6166C34.9437 17.0564 37.2501 14.9241 40.1497 14.8538L41.7502 14.815L36.9107 9.55242C34.1671 6.56897 33.3308 2.69615 35.0428 0.902269C36.7548 -0.891616 40.3667 0.0727094 43.1103 3.05615L43.1128 3.05894L53.0457 13.8602C53.7116 14.5843 54.2651 15.3608 54.6971 16.1472C55.4869 16.9357 55.9748 17.9679 55.9991 19.1075C56.0098 19.6134 55.9284 20.1025 55.7684 20.5624Z" fill="url(#paint2_linear_1292_3809)"/>
<defs>
<linearGradient id="paint0_linear_1292_3809" x1="8.40228" y1="-54.4796" x2="89.7381" y2="-32.3363" gradientUnits="userSpaceOnUse">
<stop stop-color="#D39CFF"/>
<stop offset="0.549209" stop-color="#B4C5FE" stop-opacity="0.852278"/>
<stop offset="0.856527" stop-color="#93F1FE" stop-opacity="0.695417"/>
<stop offset="1" stop-color="#F0DEFF" stop-opacity="0.32"/>
</linearGradient>
<linearGradient id="paint1_linear_1292_3809" x1="8.40228" y1="-54.4796" x2="89.7381" y2="-32.3363" gradientUnits="userSpaceOnUse">
<stop stop-color="#D39CFF"/>
<stop offset="0.549209" stop-color="#B4C5FE" stop-opacity="0.852278"/>
<stop offset="0.856527" stop-color="#93F1FE" stop-opacity="0.695417"/>
<stop offset="1" stop-color="#F0DEFF" stop-opacity="0.32"/>
</linearGradient>
<linearGradient id="paint2_linear_1292_3809" x1="8.40228" y1="-54.4796" x2="89.7381" y2="-32.3363" gradientUnits="userSpaceOnUse">
<stop stop-color="#D39CFF"/>
<stop offset="0.549209" stop-color="#B4C5FE" stop-opacity="0.852278"/>
<stop offset="0.856527" stop-color="#93F1FE" stop-opacity="0.695417"/>
<stop offset="1" stop-color="#F0DEFF" stop-opacity="0.32"/>
</linearGradient>
</defs>
</svg>
