<svg width="32" height="32" viewBox="0 0 32 32" fill="none" xmlns="http://www.w3.org/2000/svg">
<path d="M3 5H29C29.5531 5 30 5.44687 30 6V26C30 26.5531 29.5531 27 29 27H3C2.44687 27 2 26.5531 2 26V6C2 5.44687 2.44687 5 3 5ZM4.25 8.4625V24.75H27.75V8.4625L28.6125 7.79063L27.3844 6.2125L26.0469 7.25313H5.95L4.6125 6.2125L3.38437 7.79063L4.25 8.4625ZM5.95 7.25L16 15.0625L26.05 7.25L27.3875 6.20937L28.6156 7.7875L27.7531 8.45938L17.0781 16.7594C16.7711 16.9979 16.3934 17.1273 16.0047 17.1273C15.6159 17.1273 15.2382 16.9979 14.9312 16.7594L4.25 8.4625L3.3875 7.79063L4.61563 6.2125L5.95 7.25Z" fill="black"/>
</svg>
