<svg width="263" height="90" viewBox="0 0 263 90" fill="none" xmlns="http://www.w3.org/2000/svg">
<path d="M79.588 13.344C82.18 15.252 85.348 18.06 86.824 19.824L90.28 18.168C88.588 16.26 85.312 13.632 82.792 11.868L79.588 13.344ZM69.256 21.912C70.156 23.46 71.02 25.584 71.308 26.916L74.476 25.944C74.152 24.612 73.216 22.56 72.28 21.048L69.256 21.912ZM87.436 21.732C88.804 23.532 90.208 25.944 90.748 27.528L93.952 26.16C93.34 24.54 91.828 22.2 90.424 20.508L87.436 21.732ZM78.148 28.068C75.7 29.724 71.056 31.308 67.528 32.1C68.356 32.82 69.292 33.936 69.832 34.692C73.576 33.612 78.184 31.812 81.208 29.616L78.148 28.068ZM81.964 31.344C78.724 33.9 72.424 35.772 66.88 36.672C67.708 37.536 68.572 38.832 69.04 39.732C74.98 38.472 81.28 36.24 85.204 32.964L81.964 31.344ZM85.888 34.944C81.892 39.012 73.756 40.992 65.08 41.784C65.872 42.756 66.664 44.232 67.024 45.276C76.312 44.052 84.628 41.64 89.416 36.6L85.888 34.944ZM76.132 20.4C73.324 25.584 67.42 29.076 60.472 30.912C61.192 31.74 62.38 33.468 62.776 34.332C70.192 31.92 76.564 27.78 80.092 21.516L76.132 20.4ZM79.012 22.236L75.448 23.676C79.3 28.428 85.636 32.208 92.296 34.08C92.872 33.108 94.096 31.524 94.996 30.768C88.516 29.256 82.18 26.016 79.012 22.236ZM65.908 19.428C65.908 18.744 68.248 17.772 68.248 17.772V17.736C71.164 16.62 74.404 14.892 77.104 13.02L73.288 11.184C71.128 13.02 68.104 14.604 67.096 15.036C66.196 15.504 65.404 15.792 64.648 15.936C65.08 16.944 65.692 18.708 65.908 19.428ZM65.908 19.428C67.492 18.924 69.652 18.996 87.976 18.276C87.544 17.556 86.788 16.296 86.356 15.324L68.176 15.756L65.872 16.872L65.908 19.428ZM63.568 27.204C63.568 26.52 65.656 25.44 65.656 25.44V25.368C66.952 24.252 68.536 22.344 69.508 20.688L65.692 19.176C65.08 20.904 63.892 22.452 63.532 22.92C63.136 23.388 62.632 23.748 62.236 23.856C62.668 24.792 63.316 26.448 63.568 27.204ZM63.568 27.204C64.36 26.916 65.548 26.736 72.424 26.304C72.028 25.548 71.272 24.324 70.84 23.388L65.116 23.604L63.532 24.648L63.568 27.204ZM81.748 27.024C81.748 26.376 83.8 25.26 83.8 25.26V25.188C84.952 24.108 86.356 22.236 87.22 20.652L83.404 19.212C82.9 20.832 81.928 22.38 81.64 22.812C81.28 23.28 80.812 23.604 80.452 23.712C80.848 24.648 81.496 26.304 81.748 27.024ZM81.748 27.024C82.54 26.736 83.764 26.556 90.82 26.088C90.388 25.332 89.668 24.108 89.2 23.172L83.296 23.424L81.712 24.432L81.748 27.024ZM97.804 13.452V19.5H101.728V16.692H125.164V19.5H129.268V13.452H97.804ZM106.3 17.16V26.844H110.26V17.16H106.3ZM116.704 17.16V26.844H120.736V17.16H116.704ZM101.476 18.348V20.688H125.632V18.348H101.476ZM101.908 21.768V23.964H125.38V21.768H101.908ZM97.624 24.972V27.924H129.52V24.972H97.624ZM106.948 25.8C104.788 28.284 100.468 30.408 96.328 31.452C97.156 32.172 98.308 33.648 98.848 34.548C103.204 33.18 107.56 30.3 110.116 27.06L106.948 25.8ZM120.484 25.548L117.388 26.772C119.8 29.904 123.904 32.748 128.008 34.044C128.584 33.036 129.772 31.524 130.672 30.768C126.676 29.832 122.572 27.852 120.484 25.548ZM107.02 34.188H119.872V35.232H107.02V34.188ZM107.02 37.284H119.872V38.4H107.02V37.284ZM107.02 31.128H119.872V32.208H107.02V31.128ZM103.06 29.04V40.452H124.012V29.04H103.06ZM115.012 41.856C119.008 42.936 123.004 44.268 125.344 45.168L128.944 42.828C126.208 41.928 121.672 40.596 117.748 39.588L115.012 41.856ZM108.676 39.516C106.408 40.668 101.548 41.928 97.516 42.468C98.308 43.188 99.424 44.448 100.036 45.168C104.068 44.592 109 43.26 111.952 41.712L108.676 39.516ZM110.908 12.084C111.484 13.2 112.06 14.712 112.24 15.684L116.776 14.388C116.524 13.452 115.876 11.976 115.228 10.932L110.908 12.084ZM149.212 17.304L147.196 21.408H166.492V17.304H149.212ZM153.964 25.224V29.148H165.556V25.224H153.964ZM153.928 33.18V37.212H166.024V33.18H153.928ZM151.768 18.672V45.24H156.196V18.672H151.768ZM150.04 11.76C148.384 16.98 145.54 22.164 142.372 25.404C143.308 26.088 144.964 27.636 145.648 28.428C148.96 24.684 152.2 18.708 154.216 12.876L150.04 11.76ZM140.536 11.58C138.7 16.728 135.568 21.84 132.256 25.116C133.012 26.196 134.236 28.644 134.632 29.724C138.592 25.62 142.372 19.032 144.712 12.912L140.536 11.58ZM136.9 21.516V45.204H141.256V17.196L141.22 17.16L136.9 21.516ZM179.128 16.98H191.8V21.84H179.128V16.98ZM174.952 12.876V25.944H196.228V12.876H174.952ZM170.02 28.968V45.24H174.088V33.072H179.452V45.024H183.772V28.968H170.02ZM186.832 28.968V45.24H190.972V33.072H196.732V45.06H201.088V28.968H186.832ZM171.82 39.3V43.44H181.252V39.3H171.82ZM188.812 39.3V43.44H198.892V39.3H188.812Z" fill="url(#paint0_linear_1292_4268)"/>
<path d="M60.8734 86H62.2174V79.504C62.2174 78.496 62.1054 77.072 62.0414 76.048H62.1054L63.0334 78.72L65.2574 84.816H66.2494L68.4734 78.72L69.4014 76.048H69.4654C69.3854 77.072 69.2734 78.496 69.2734 79.504V86H70.6654V74.272H68.8734L66.6334 80.544C66.3614 81.36 66.1054 82.176 65.8334 82.992H65.7534C65.4654 82.176 65.1934 81.36 64.9214 80.544L62.6654 74.272H60.8734V86ZM77.2338 86.208C78.4178 86.208 79.3458 85.808 80.1138 85.312L79.5858 84.352C78.9458 84.784 78.2578 85.04 77.4098 85.04C75.7618 85.04 74.6258 83.856 74.5298 82H80.3858C80.4178 81.792 80.4498 81.488 80.4498 81.168C80.4498 78.688 79.2018 77.088 76.9938 77.088C74.9778 77.088 73.0738 78.848 73.0738 81.664C73.0738 84.528 74.9298 86.208 77.2338 86.208ZM74.5138 80.96C74.6898 79.248 75.7778 78.256 77.0098 78.256C78.3698 78.256 79.1698 79.2 79.1698 80.96H74.5138ZM82.5892 86H84.0452V77.312H82.5892V86ZM83.3252 75.52C83.9012 75.52 84.3332 75.12 84.3332 74.576C84.3332 73.984 83.9012 73.632 83.3252 73.632C82.7492 73.632 82.3172 73.984 82.3172 74.576C82.3172 75.12 82.7492 75.52 83.3252 75.52ZM86.2594 82.08H90.3554V80.96H86.2594V82.08ZM95.9663 86.208C97.0063 86.208 97.9983 85.808 98.7663 85.104L98.1423 84.128C97.5983 84.624 96.8943 84.992 96.0943 84.992C94.4943 84.992 93.4063 83.664 93.4063 81.664C93.4063 79.664 94.5583 78.304 96.1263 78.304C96.8303 78.304 97.3583 78.624 97.8703 79.088L98.6223 78.112C97.9983 77.568 97.2143 77.088 96.0783 77.088C93.8543 77.088 91.8863 78.768 91.8863 81.664C91.8863 84.544 93.6623 86.208 95.9663 86.208ZM100.683 86H102.139V79.696C103.019 78.816 103.627 78.368 104.523 78.368C105.675 78.368 106.171 79.056 106.171 80.688V86H107.627V80.496C107.627 78.272 106.795 77.088 104.971 77.088C103.787 77.088 102.891 77.744 102.091 78.544L102.139 76.752V73.264H100.683V86ZM112.93 86.208C114.13 86.208 114.994 85.584 115.81 84.64H115.858L115.97 86H117.186V77.312H115.73V83.472C114.898 84.512 114.274 84.944 113.378 84.944C112.226 84.944 111.746 84.256 111.746 82.64V77.312H110.29V82.816C110.29 85.024 111.106 86.208 112.93 86.208ZM123.827 86H125.315V80.464H130.787V86H132.259V74.272H130.787V79.184H125.315V74.272H123.827V86ZM137.339 86.208C138.411 86.208 139.387 85.648 140.219 84.96H140.267L140.395 86H141.595V80.656C141.595 78.512 140.699 77.088 138.587 77.088C137.195 77.088 135.963 77.712 135.163 78.224L135.739 79.232C136.427 78.768 137.339 78.304 138.347 78.304C139.771 78.304 140.139 79.376 140.139 80.496C136.443 80.912 134.795 81.856 134.795 83.744C134.795 85.312 135.883 86.208 137.339 86.208ZM137.755 85.04C136.891 85.04 136.219 84.64 136.219 83.648C136.219 82.528 137.211 81.808 140.139 81.456V83.888C139.291 84.64 138.603 85.04 137.755 85.04ZM147.794 86.208C148.834 86.208 149.826 85.808 150.594 85.104L149.97 84.128C149.426 84.624 148.722 84.992 147.922 84.992C146.322 84.992 145.234 83.664 145.234 81.664C145.234 79.664 146.386 78.304 147.954 78.304C148.658 78.304 149.186 78.624 149.698 79.088L150.45 78.112C149.826 77.568 149.042 77.088 147.906 77.088C145.682 77.088 143.714 78.768 143.714 81.664C143.714 84.544 145.49 86.208 147.794 86.208ZM152.511 86H153.951V83.712L155.583 81.808L158.127 86H159.711L156.415 80.8L159.327 77.312H157.711L153.983 81.904H153.951V73.264H152.511V86ZM163.167 86.208C164.239 86.208 165.215 85.648 166.047 84.96H166.095L166.223 86H167.423V80.656C167.423 78.512 166.527 77.088 164.415 77.088C163.023 77.088 161.791 77.712 160.991 78.224L161.567 79.232C162.255 78.768 163.167 78.304 164.175 78.304C165.599 78.304 165.967 79.376 165.967 80.496C162.271 80.912 160.623 81.856 160.623 83.744C160.623 85.312 161.711 86.208 163.167 86.208ZM163.583 85.04C162.719 85.04 162.047 84.64 162.047 83.648C162.047 82.528 163.039 81.808 165.967 81.456V83.888C165.119 84.64 164.431 85.04 163.583 85.04ZM172.7 86.208C173.228 86.208 173.804 86.048 174.3 85.888L174.012 84.8C173.724 84.912 173.324 85.024 173.02 85.024C172.012 85.024 171.676 84.416 171.676 83.344V78.496H174.028V77.312H171.676V74.88H170.46L170.284 77.312L168.924 77.392V78.496H170.22V83.312C170.22 85.056 170.844 86.208 172.7 86.208ZM175.995 86H177.451V79.696C178.331 78.816 178.939 78.368 179.835 78.368C180.987 78.368 181.483 79.056 181.483 80.688V86H182.939V80.496C182.939 78.272 182.107 77.088 180.283 77.088C179.099 77.088 178.203 77.744 177.403 78.544L177.451 76.752V73.264H175.995V86ZM189.09 86.208C191.218 86.208 193.122 84.544 193.122 81.664C193.122 78.768 191.218 77.088 189.09 77.088C186.962 77.088 185.058 78.768 185.058 81.664C185.058 84.544 186.962 86.208 189.09 86.208ZM189.09 84.992C187.586 84.992 186.578 83.664 186.578 81.664C186.578 79.664 187.586 78.304 189.09 78.304C190.594 78.304 191.618 79.664 191.618 81.664C191.618 83.664 190.594 84.992 189.09 84.992ZM195.417 86H196.873V79.696C197.753 78.816 198.361 78.368 199.257 78.368C200.409 78.368 200.905 79.056 200.905 80.688V86H202.361V80.496C202.361 78.272 201.529 77.088 199.705 77.088C198.521 77.088 197.625 77.744 196.793 78.56H196.745L196.617 77.312H195.417V86Z" fill="url(#paint1_linear_1292_4268)"/>
<path d="M95.34 57.088H96.86V56H95.34V52.608H94.252V56H92.38V57.088H94.188C93.788 59.264 92.956 61.84 92.076 63.232C92.268 63.488 92.54 63.92 92.684 64.24C93.26 63.296 93.82 61.84 94.252 60.304V67.216H95.34V59.312C95.74 60.096 96.22 61.056 96.428 61.584L97.084 60.624C96.844 60.16 95.724 58.304 95.34 57.712V57.088ZM106.476 55.424V54.352H99.964C100.172 53.872 100.348 53.36 100.492 52.848L99.404 52.592C98.94 54.336 98.124 56.032 97.116 57.136C97.356 57.296 97.804 57.648 97.996 57.84C98.54 57.184 99.052 56.352 99.516 55.424H106.476ZM100.764 58.736C101.42 59.168 102.364 59.84 102.844 60.24L103.5 59.568C103.02 59.2 102.092 58.576 101.388 58.144L100.764 58.736ZM103.244 63.104C102.764 62.72 101.852 62.032 101.164 61.584L100.524 62.16C101.18 62.624 102.076 63.328 102.588 63.76L103.244 63.104ZM99.132 64.032C99.244 63.264 99.372 62.368 99.484 61.424H104.556C104.508 62.512 104.444 63.376 104.38 64.032H99.132ZM104.7 57.952C104.668 58.864 104.636 59.664 104.604 60.384H99.612C99.708 59.552 99.788 58.736 99.884 57.952H104.7ZM106.796 61.424V60.384H105.676C105.724 59.536 105.756 58.592 105.788 57.504C105.788 57.36 105.804 56.944 105.804 56.944H98.892C98.812 57.984 98.684 59.184 98.524 60.384H97.228V61.424H98.396C98.22 62.784 98.012 64.08 97.852 65.04H104.252C104.172 65.504 104.076 65.792 103.964 65.92C103.852 66.128 103.708 66.16 103.452 66.144C103.18 66.144 102.572 66.144 101.9 66.096C102.076 66.368 102.172 66.8 102.188 67.104C102.86 67.136 103.516 67.152 103.9 67.104C104.364 67.056 104.668 66.928 104.924 66.56C105.116 66.304 105.26 65.856 105.372 65.04H106.588V64.032H105.468C105.532 63.344 105.58 62.496 105.644 61.424H106.796ZM115.5 57.024V55.856H111.18C111.532 54.896 111.836 53.888 112.092 52.864L110.876 52.608C110.284 55.184 109.276 57.744 107.964 59.36C108.268 59.536 108.812 59.888 109.036 60.08C109.644 59.248 110.22 58.192 110.716 57.024H111.484V67.216H112.652V57.024H115.5ZM122.812 55.856H117.292C117.644 54.896 117.932 53.888 118.172 52.848L116.988 52.608C116.428 55.2 115.452 57.728 114.156 59.344C114.46 59.504 114.972 59.856 115.18 60.064C115.804 59.232 116.364 58.176 116.86 57.024H119.196V65.648C119.196 65.888 119.132 65.952 118.86 65.968C118.572 65.984 117.644 65.984 116.668 65.952C116.844 66.304 117.004 66.848 117.068 67.2C118.316 67.2 119.212 67.184 119.724 66.96C120.236 66.784 120.396 66.416 120.396 65.648V57.024H122.812V55.856ZM133.548 57.456C133.964 56.816 134.492 55.824 134.94 54.96L134.012 54.608C133.74 55.36 133.196 56.448 132.78 57.136L133.548 57.456ZM128.06 54.896C128.492 55.648 128.924 56.656 129.052 57.28L129.884 56.96C129.756 56.336 129.308 55.36 128.844 54.624L128.06 54.896ZM127.164 57.68V54.224H130.892V57.68H127.164ZM135.74 57.68H132.06V54.224H135.74V57.68ZM138.572 62.416H132.06V60.976H137.228V60H132.06V58.688H136.924V53.216H126.028V58.688H130.892V60H125.756V60.976H130.892V62.416H124.444V63.472H138.572V62.416ZM125.564 67.296C126.332 66.576 126.972 65.408 127.372 64.384L126.236 64.112C125.852 65.088 125.18 66.16 124.46 66.768L125.564 67.296ZM128.956 64.512C129.132 65.376 129.244 66.48 129.244 67.136L130.412 66.976C130.412 66.352 130.268 65.248 130.06 64.432L128.956 64.512ZM132.236 64.544C132.572 65.376 132.94 66.464 133.084 67.136L134.252 66.848C134.108 66.192 133.708 65.12 133.34 64.32L132.236 64.544ZM135.468 64.48C136.236 65.328 137.116 66.512 137.5 67.248L138.652 66.8C138.22 66.048 137.324 64.896 136.54 64.112L135.468 64.48ZM141.948 55.152H153.004V57.056H154.204V54.048H148.508C148.252 53.552 147.9 52.944 147.58 52.48L146.428 52.768C146.668 53.152 146.924 53.632 147.148 54.048H140.78V57.056H141.948V55.152ZM143.948 62.336C145.196 61.936 146.396 61.424 147.516 60.816C148.668 61.44 149.932 61.936 151.292 62.336H143.948ZM144.38 65.664V63.344H150.7V65.664H144.38ZM145.212 57.552H150.044C149.388 58.288 148.524 58.944 147.532 59.552C146.588 58.976 145.772 58.336 145.148 57.616L145.212 57.552ZM151.068 56.56L150.86 56.608H146.108C146.364 56.288 146.62 55.984 146.844 55.664L145.564 55.44C144.764 56.656 143.212 58.048 141.02 59.024C141.292 59.216 141.644 59.6 141.82 59.872C142.764 59.408 143.596 58.88 144.316 58.32C144.908 58.992 145.612 59.6 146.412 60.16C144.492 61.104 142.252 61.792 140.124 62.16C140.332 62.416 140.588 62.896 140.7 63.2C141.532 63.024 142.38 62.832 143.228 62.576V67.216H144.38V66.688H150.7V67.2H151.9V62.496C152.62 62.688 153.372 62.848 154.124 62.944C154.3 62.608 154.604 62.096 154.876 61.824C152.604 61.536 150.46 60.96 148.684 60.128C149.98 59.28 151.084 58.256 151.868 57.072L151.068 56.56ZM165.724 53.072V54.096H167.244C167.74 56.368 168.604 58.656 169.628 60.08C169.852 59.808 170.268 59.376 170.524 59.168C169.468 57.872 168.556 55.456 168.108 53.072H165.724ZM159.804 52.624H158.716V55.984H156.348V57.104H158.588C158.108 59.296 157.1 61.824 156.06 63.136C156.284 63.44 156.572 63.952 156.716 64.288C157.452 63.216 158.172 61.504 158.716 59.728V67.216H159.804V59.264C160.268 60.064 160.812 61.056 161.036 61.568L161.756 60.72C161.484 60.272 160.236 58.416 159.804 57.856V57.104H161.82V55.984H159.804V52.624ZM164.092 53.2C163.724 55.552 163.068 57.776 161.996 59.2C162.236 59.424 162.652 59.888 162.828 60.112C163.996 58.48 164.78 56 165.228 53.424L164.092 53.2ZM167.308 62.08C167.692 62.832 168.092 63.712 168.476 64.544L163.756 65.104C164.78 63.136 165.756 60.608 166.46 58.144L165.276 57.808C164.636 60.448 163.42 63.312 163.036 64.048C162.652 64.816 162.38 65.344 162.06 65.44C162.204 65.744 162.412 66.336 162.46 66.576C162.892 66.352 163.548 66.256 168.908 65.536C169.132 66.048 169.324 66.512 169.452 66.896L170.524 66.368C170.092 65.216 169.1 63.184 168.332 61.664L167.308 62.08Z" fill="url(#paint2_linear_1292_4268)"/>
<path fill-rule="evenodd" clip-rule="evenodd" d="M230 8C239.089 8.07596 246.434 15.4677 246.434 24.5749V69.7271C246.434 78.8343 239.089 86.226 230 86.302V76.3011C233.566 76.2258 236.434 73.3114 236.434 69.7271V24.5749C236.434 20.9906 233.566 18.0761 230 18.0009V8Z" fill="url(#paint3_linear_1292_4268)"/>
<path fill-rule="evenodd" clip-rule="evenodd" d="M31.4342 8C22.3448 8.07591 15 15.4677 15 24.5749V69.7271C15 78.8343 22.3448 86.2261 31.4342 86.302V76.3011C27.8679 76.2259 25 73.3114 25 69.7271V24.5749C25 20.9906 27.8679 18.0761 31.4342 18.0009V8Z" fill="url(#paint4_linear_1292_4268)"/>
<defs>
<linearGradient id="paint0_linear_1292_4268" x1="223.539" y1="-64.0135" x2="35.6801" y2="140.406" gradientUnits="userSpaceOnUse">
<stop stop-color="#D39CFF"/>
<stop offset="0.549209" stop-color="#B4C5FE" stop-opacity="0.852278"/>
<stop offset="0.856527" stop-color="#93F1FE" stop-opacity="0.695417"/>
<stop offset="1" stop-color="#F0DEFF" stop-opacity="0.32"/>
</linearGradient>
<linearGradient id="paint1_linear_1292_4268" x1="216.54" y1="35.6742" x2="143.931" y2="184.852" gradientUnits="userSpaceOnUse">
<stop stop-color="#D39CFF"/>
<stop offset="0.549209" stop-color="#B4C5FE" stop-opacity="0.852278"/>
<stop offset="0.856527" stop-color="#93F1FE" stop-opacity="0.695417"/>
<stop offset="1" stop-color="#F0DEFF" stop-opacity="0.32"/>
</linearGradient>
<linearGradient id="paint2_linear_1292_4268" x1="220.04" y1="14.3122" x2="144.169" y2="169.843" gradientUnits="userSpaceOnUse">
<stop stop-color="#D39CFF"/>
<stop offset="0.549209" stop-color="#B4C5FE" stop-opacity="0.852278"/>
<stop offset="0.856527" stop-color="#93F1FE" stop-opacity="0.695417"/>
<stop offset="1" stop-color="#F0DEFF" stop-opacity="0.32"/>
</linearGradient>
<linearGradient id="paint3_linear_1292_4268" x1="232.465" y1="-98.6465" x2="258.061" y2="-97.6018" gradientUnits="userSpaceOnUse">
<stop stop-color="#D39CFF"/>
<stop offset="0.549209" stop-color="#B4C5FE" stop-opacity="0.852278"/>
<stop offset="0.856527" stop-color="#93F1FE" stop-opacity="0.695417"/>
<stop offset="1" stop-color="#F0DEFF" stop-opacity="0.32"/>
</linearGradient>
<linearGradient id="paint4_linear_1292_4268" x1="28.9684" y1="-98.6465" x2="3.37247" y2="-97.6018" gradientUnits="userSpaceOnUse">
<stop stop-color="#D39CFF"/>
<stop offset="0.549209" stop-color="#B4C5FE" stop-opacity="0.852278"/>
<stop offset="0.856527" stop-color="#93F1FE" stop-opacity="0.695417"/>
<stop offset="1" stop-color="#F0DEFF" stop-opacity="0.32"/>
</linearGradient>
</defs>
</svg>
