<svg width="292" height="156" viewBox="0 0 292 156" fill="none" xmlns="http://www.w3.org/2000/svg">
<circle cx="148" cy="85" r="4" transform="rotate(-180 148 85)" fill="url(#paint0_linear_1569_2491)"/>
<circle cx="96" cy="60" r="4" transform="rotate(-180 96 60)" fill="url(#paint1_linear_1569_2491)"/>
<circle cx="236" cy="56" r="4" transform="rotate(-180 236 56)" fill="url(#paint2_linear_1569_2491)"/>
<circle cx="131.5" cy="103.5" r="5.5" transform="rotate(-180 131.5 103.5)" fill="url(#paint3_linear_1569_2491)"/>
<circle cx="107" cy="90" r="4" transform="rotate(-180 107 90)" fill="url(#paint4_linear_1569_2491)"/>
<circle cx="68" cy="102" r="4" transform="rotate(-180 68 102)" fill="url(#paint5_linear_1569_2491)"/>
<circle r="3" transform="matrix(-1 0 0 1 126 63)" fill="url(#paint6_linear_1569_2491)"/>
<g filter="url(#filter0_f_1569_2491)">
<ellipse rx="0.898618" ry="0.801843" transform="matrix(-1 0 0 1 125.475 62.0185)" fill="#FFE1E1"/>
</g>
<circle r="3" transform="matrix(-1 0 0 1 32 78)" fill="url(#paint7_linear_1569_2491)"/>
<g filter="url(#filter1_f_1569_2491)">
<ellipse rx="0.898618" ry="0.801843" transform="matrix(-1 0 0 1 31.4747 77.0185)" fill="#FFE1E1"/>
</g>
<circle r="3" transform="matrix(-1 0 0 1 224 32)" fill="url(#paint8_linear_1569_2491)"/>
<g filter="url(#filter2_f_1569_2491)">
<ellipse rx="0.898618" ry="0.801843" transform="matrix(-1 0 0 1 223.475 31.0185)" fill="#FFE1E1"/>
</g>
<circle r="3" transform="matrix(-1 0 0 1 137 42)" fill="url(#paint9_linear_1569_2491)"/>
<g filter="url(#filter3_f_1569_2491)">
<ellipse rx="0.898618" ry="0.801843" transform="matrix(-1 0 0 1 136.475 41.0185)" fill="#FFE1E1"/>
</g>
<circle r="3" transform="matrix(-1 0 0 1 179 40)" fill="url(#paint10_linear_1569_2491)"/>
<g filter="url(#filter4_f_1569_2491)">
<ellipse rx="0.898618" ry="0.801843" transform="matrix(-1 0 0 1 178.475 39.0185)" fill="#FFE1E1"/>
</g>
<g filter="url(#filter5_ii_1569_2491)">
<path d="M199.733 110.072C208.131 110.274 216.685 108.841 224.15 105.98C231.615 103.119 237.602 98.9806 241.238 94.1667C244.874 89.3529 245.969 84.1152 244.366 79.2159C242.762 74.3165 238.543 70.0115 232.321 66.9274C226.1 63.8433 218.202 62.1411 209.777 62.0686C201.352 61.9962 192.839 63.5573 185.479 66.5246C178.118 69.4919 172.294 73.7106 168.853 78.5665C165.413 83.4225 164.536 88.6621 166.35 93.5228L176.699 91.5426C175.368 87.9749 176.011 84.1291 178.537 80.5649C181.062 77.0007 185.337 73.9042 190.74 71.7263C196.142 69.5483 202.39 68.4025 208.574 68.4557C214.758 68.5088 220.555 69.7582 225.122 72.0219C229.688 74.2856 232.785 77.4454 233.962 81.0415C235.139 84.6375 234.335 88.4819 231.666 92.0152C228.997 95.5485 224.603 98.5861 219.124 100.686C213.645 102.786 207.366 103.838 201.202 103.69L199.733 110.072Z" fill="url(#paint11_linear_1569_2491)"/>
</g>
<ellipse cx="163.82" cy="56.0776" rx="5.82012" ry="6.07765" fill="url(#paint12_linear_1569_2491)"/>
<g filter="url(#filter6_f_1569_2491)">
<ellipse cx="184.702" cy="59.9735" rx="1.74335" ry="1.62444" fill="#FFE1E1"/>
</g>
<rect width="21.8044" height="21.8044" transform="matrix(0.856396 -0.516319 0.856396 0.516319 183.683 73.9632)" fill="url(#paint13_linear_1569_2491)"/>
<path fill-rule="evenodd" clip-rule="evenodd" d="M183.683 73.963V85.9966H183.716L183.683 86.0161L202.356 97.2741L221.03 86.0161L220.997 85.9966H221.03V73.9448H220.999L221.03 73.963L202.356 85.221L183.683 73.963ZM183.713 73.9448H183.683V73.9629L183.713 73.9448Z" fill="url(#paint14_linear_1569_2491)"/>
<rect width="21.8044" height="21.8044" transform="matrix(0.856396 -0.516319 0.856396 0.516319 183.683 52.2581)" fill="url(#paint15_linear_1569_2491)"/>
<path fill-rule="evenodd" clip-rule="evenodd" d="M183.683 52.2569V64.2901H183.714L183.683 64.3083L202.357 75.5663L221.03 64.3083L220.999 64.2901H221.03V52.2383H220.999L221.03 52.2568L202.357 63.5148L183.683 52.2569ZM183.714 52.2383H183.683V52.2568L183.714 52.2383Z" fill="url(#paint16_linear_1569_2491)"/>
<ellipse rx="1.5132" ry="1.56258" transform="matrix(0.856396 0.516319 -2.1097e-08 1 187.592 61.9492)" fill="#F5F1FF"/>
<ellipse rx="1.5132" ry="1.56258" transform="matrix(0.856396 0.516319 -2.1097e-08 1 198.163 67.9017)" fill="#F5F1FF"/>
<rect width="8.87648" height="0.985719" rx="0.49286" transform="matrix(0.856396 0.516319 -2.1097e-08 1 189.266 65.1859)" fill="#F4F0FF"/>
<g filter="url(#filter7_f_1569_2491)">
<path fill-rule="evenodd" clip-rule="evenodd" d="M183.477 62.7043L183.446 62.7233V62.7043H183.477ZM220.761 62.7043L220.792 62.7233L202.119 73.9813L183.446 62.7233V74.7561H183.476L183.446 74.7743L202.119 86.0323L220.792 74.7743L220.762 74.7561H220.792L220.792 62.7233L220.792 62.7043H220.761Z" fill="url(#paint17_linear_1569_2491)"/>
</g>
<g filter="url(#filter8_f_1569_2491)">
<path fill-rule="evenodd" clip-rule="evenodd" d="M182.258 81.4524V93.4857H182.289L182.258 93.504L201.5 104.762L220.742 93.504L220.711 93.4857H220.742V81.434H220.71L220.742 81.4523L201.5 92.7103L182.258 81.4524ZM182.289 81.434H182.258V81.4522L182.289 81.434Z" fill="url(#paint18_linear_1569_2491)"/>
</g>
<rect width="11.0078" height="2.5904" rx="1.2952" transform="matrix(0.856396 -0.516319 0.856396 0.516319 189.503 51.5204)" fill="url(#paint19_linear_1569_2491)"/>
<rect width="11.0078" height="2.5904" rx="1.2952" transform="matrix(0.856396 -0.516319 0.856396 0.516319 194.254 55.1181)" fill="url(#paint20_linear_1569_2491)"/>
<rect width="11.0078" height="2.5904" rx="1.2952" transform="matrix(0.856396 -0.516319 0.856396 0.516319 199.481 58.5897)" fill="url(#paint21_linear_1569_2491)"/>
<ellipse cx="216.466" cy="75.3564" rx="5.82012" ry="6.07765" fill="url(#paint22_linear_1569_2491)"/>
<g filter="url(#filter9_f_1569_2491)">
<ellipse cx="217.485" cy="73.3679" rx="1.74335" ry="1.62444" fill="#FFE1E1"/>
</g>
<g filter="url(#filter10_f_1569_2491)">
<ellipse cx="257.525" cy="72.7638" rx="1.74335" ry="1.62444" fill="#FFE1E1"/>
</g>
<g filter="url(#filter11_f_1569_2491)">
<ellipse cx="260.257" cy="123.741" rx="1.74335" ry="1.62444" fill="#FFE1E1"/>
</g>
<circle r="1.68159" transform="matrix(0.856396 0.516319 -0.856396 0.516319 213.526 52.286)" fill="url(#paint23_linear_1569_2491)"/>
<circle r="1.68159" transform="matrix(0.856396 0.516319 -0.856396 0.516319 207.825 48.8139)" fill="url(#paint24_linear_1569_2491)"/>
<circle r="1.68159" transform="matrix(0.856396 0.516319 -0.856396 0.516319 203.073 44.4721)" fill="url(#paint25_linear_1569_2491)"/>
<defs>
<filter id="filter0_f_1569_2491" x="94.576" y="31.2166" width="61.7972" height="61.6037" filterUnits="userSpaceOnUse" color-interpolation-filters="sRGB">
<feFlood flood-opacity="0" result="BackgroundImageFix"/>
<feBlend mode="normal" in="SourceGraphic" in2="BackgroundImageFix" result="shape"/>
<feGaussianBlur stdDeviation="15" result="effect1_foregroundBlur_1569_2491"/>
</filter>
<filter id="filter1_f_1569_2491" x="0.57605" y="46.2166" width="61.7972" height="61.6037" filterUnits="userSpaceOnUse" color-interpolation-filters="sRGB">
<feFlood flood-opacity="0" result="BackgroundImageFix"/>
<feBlend mode="normal" in="SourceGraphic" in2="BackgroundImageFix" result="shape"/>
<feGaussianBlur stdDeviation="15" result="effect1_foregroundBlur_1569_2491"/>
</filter>
<filter id="filter2_f_1569_2491" x="192.576" y="0.216614" width="61.7972" height="61.6037" filterUnits="userSpaceOnUse" color-interpolation-filters="sRGB">
<feFlood flood-opacity="0" result="BackgroundImageFix"/>
<feBlend mode="normal" in="SourceGraphic" in2="BackgroundImageFix" result="shape"/>
<feGaussianBlur stdDeviation="15" result="effect1_foregroundBlur_1569_2491"/>
</filter>
<filter id="filter3_f_1569_2491" x="105.576" y="10.2166" width="61.7972" height="61.6037" filterUnits="userSpaceOnUse" color-interpolation-filters="sRGB">
<feFlood flood-opacity="0" result="BackgroundImageFix"/>
<feBlend mode="normal" in="SourceGraphic" in2="BackgroundImageFix" result="shape"/>
<feGaussianBlur stdDeviation="15" result="effect1_foregroundBlur_1569_2491"/>
</filter>
<filter id="filter4_f_1569_2491" x="147.576" y="8.21661" width="61.7972" height="61.6037" filterUnits="userSpaceOnUse" color-interpolation-filters="sRGB">
<feFlood flood-opacity="0" result="BackgroundImageFix"/>
<feBlend mode="normal" in="SourceGraphic" in2="BackgroundImageFix" result="shape"/>
<feGaussianBlur stdDeviation="15" result="effect1_foregroundBlur_1569_2491"/>
</filter>
<filter id="filter5_ii_1569_2491" x="161.428" y="58.0662" width="87.6569" height="56.0248" filterUnits="userSpaceOnUse" color-interpolation-filters="sRGB">
<feFlood flood-opacity="0" result="BackgroundImageFix"/>
<feBlend mode="normal" in="SourceGraphic" in2="BackgroundImageFix" result="shape"/>
<feColorMatrix in="SourceAlpha" type="matrix" values="0 0 0 0 0 0 0 0 0 0 0 0 0 0 0 0 0 0 127 0" result="hardAlpha"/>
<feOffset dx="4" dy="4"/>
<feGaussianBlur stdDeviation="4"/>
<feComposite in2="hardAlpha" operator="arithmetic" k2="-1" k3="1"/>
<feColorMatrix type="matrix" values="0 0 0 0 0.708333 0 0 0 0 0.708333 0 0 0 0 0.708333 0 0 0 0.6 0"/>
<feBlend mode="normal" in2="shape" result="effect1_innerShadow_1569_2491"/>
<feColorMatrix in="SourceAlpha" type="matrix" values="0 0 0 0 0 0 0 0 0 0 0 0 0 0 0 0 0 0 127 0" result="hardAlpha"/>
<feOffset dx="-4" dy="-4"/>
<feGaussianBlur stdDeviation="4"/>
<feComposite in2="hardAlpha" operator="arithmetic" k2="-1" k3="1"/>
<feColorMatrix type="matrix" values="0 0 0 0 1 0 0 0 0 0.933333 0 0 0 0 0.933333 0 0 0 0.8 0"/>
<feBlend mode="normal" in2="effect1_innerShadow_1569_2491" result="effect2_innerShadow_1569_2491"/>
</filter>
<filter id="filter6_f_1569_2491" x="152.959" y="28.3491" width="63.4867" height="63.2489" filterUnits="userSpaceOnUse" color-interpolation-filters="sRGB">
<feFlood flood-opacity="0" result="BackgroundImageFix"/>
<feBlend mode="normal" in="SourceGraphic" in2="BackgroundImageFix" result="shape"/>
<feGaussianBlur stdDeviation="15" result="effect1_foregroundBlur_1569_2491"/>
</filter>
<filter id="filter7_f_1569_2491" x="173.446" y="52.7043" width="57.3463" height="43.3279" filterUnits="userSpaceOnUse" color-interpolation-filters="sRGB">
<feFlood flood-opacity="0" result="BackgroundImageFix"/>
<feBlend mode="normal" in="SourceGraphic" in2="BackgroundImageFix" result="shape"/>
<feGaussianBlur stdDeviation="5" result="effect1_foregroundBlur_1569_2491"/>
</filter>
<filter id="filter8_f_1569_2491" x="172.258" y="71.434" width="58.4841" height="43.328" filterUnits="userSpaceOnUse" color-interpolation-filters="sRGB">
<feFlood flood-opacity="0" result="BackgroundImageFix"/>
<feBlend mode="normal" in="SourceGraphic" in2="BackgroundImageFix" result="shape"/>
<feGaussianBlur stdDeviation="5" result="effect1_foregroundBlur_1569_2491"/>
</filter>
<filter id="filter9_f_1569_2491" x="185.742" y="41.7434" width="63.4867" height="63.2489" filterUnits="userSpaceOnUse" color-interpolation-filters="sRGB">
<feFlood flood-opacity="0" result="BackgroundImageFix"/>
<feBlend mode="normal" in="SourceGraphic" in2="BackgroundImageFix" result="shape"/>
<feGaussianBlur stdDeviation="15" result="effect1_foregroundBlur_1569_2491"/>
</filter>
<filter id="filter10_f_1569_2491" x="225.781" y="41.1393" width="63.4867" height="63.2489" filterUnits="userSpaceOnUse" color-interpolation-filters="sRGB">
<feFlood flood-opacity="0" result="BackgroundImageFix"/>
<feBlend mode="normal" in="SourceGraphic" in2="BackgroundImageFix" result="shape"/>
<feGaussianBlur stdDeviation="15" result="effect1_foregroundBlur_1569_2491"/>
</filter>
<filter id="filter11_f_1569_2491" x="228.513" y="92.1161" width="63.4867" height="63.2489" filterUnits="userSpaceOnUse" color-interpolation-filters="sRGB">
<feFlood flood-opacity="0" result="BackgroundImageFix"/>
<feBlend mode="normal" in="SourceGraphic" in2="BackgroundImageFix" result="shape"/>
<feGaussianBlur stdDeviation="15" result="effect1_foregroundBlur_1569_2491"/>
</filter>
<linearGradient id="paint0_linear_1569_2491" x1="150.8" y1="70.1041" x2="138.774" y2="72.4426" gradientUnits="userSpaceOnUse">
<stop stop-color="#D39CFF"/>
<stop offset="0.549209" stop-color="#B4C5FE" stop-opacity="0.852278"/>
<stop offset="0.856527" stop-color="#93F1FE" stop-opacity="0.695417"/>
<stop offset="1" stop-color="#F0DEFF" stop-opacity="0.32"/>
</linearGradient>
<linearGradient id="paint1_linear_1569_2491" x1="98.7997" y1="45.1041" x2="86.7738" y2="47.4426" gradientUnits="userSpaceOnUse">
<stop stop-color="#D39CFF"/>
<stop offset="0.549209" stop-color="#B4C5FE" stop-opacity="0.852278"/>
<stop offset="0.856527" stop-color="#93F1FE" stop-opacity="0.695417"/>
<stop offset="1" stop-color="#F0DEFF" stop-opacity="0.32"/>
</linearGradient>
<linearGradient id="paint2_linear_1569_2491" x1="238.8" y1="41.1041" x2="226.774" y2="43.4426" gradientUnits="userSpaceOnUse">
<stop stop-color="#D39CFF"/>
<stop offset="0.549209" stop-color="#B4C5FE" stop-opacity="0.852278"/>
<stop offset="0.856527" stop-color="#93F1FE" stop-opacity="0.695417"/>
<stop offset="1" stop-color="#F0DEFF" stop-opacity="0.32"/>
</linearGradient>
<linearGradient id="paint3_linear_1569_2491" x1="135.35" y1="83.0181" x2="118.814" y2="86.2336" gradientUnits="userSpaceOnUse">
<stop stop-color="#D39CFF"/>
<stop offset="0.549209" stop-color="#B4C5FE" stop-opacity="0.852278"/>
<stop offset="0.856527" stop-color="#93F1FE" stop-opacity="0.695417"/>
<stop offset="1" stop-color="#F0DEFF" stop-opacity="0.32"/>
</linearGradient>
<linearGradient id="paint4_linear_1569_2491" x1="109.8" y1="75.1041" x2="97.7738" y2="77.4426" gradientUnits="userSpaceOnUse">
<stop stop-color="#D39CFF"/>
<stop offset="0.549209" stop-color="#B4C5FE" stop-opacity="0.852278"/>
<stop offset="0.856527" stop-color="#93F1FE" stop-opacity="0.695417"/>
<stop offset="1" stop-color="#F0DEFF" stop-opacity="0.32"/>
</linearGradient>
<linearGradient id="paint5_linear_1569_2491" x1="70.7997" y1="87.1041" x2="58.7738" y2="89.4426" gradientUnits="userSpaceOnUse">
<stop stop-color="#D39CFF"/>
<stop offset="0.549209" stop-color="#B4C5FE" stop-opacity="0.852278"/>
<stop offset="0.856527" stop-color="#93F1FE" stop-opacity="0.695417"/>
<stop offset="1" stop-color="#F0DEFF" stop-opacity="0.32"/>
</linearGradient>
<linearGradient id="paint6_linear_1569_2491" x1="5.09976" y1="-8.17194" x2="-3.91963" y2="-6.41802" gradientUnits="userSpaceOnUse">
<stop stop-color="#D39CFF"/>
<stop offset="0.549209" stop-color="#B4C5FE" stop-opacity="0.852278"/>
<stop offset="0.856527" stop-color="#93F1FE" stop-opacity="0.695417"/>
<stop offset="1" stop-color="#F0DEFF" stop-opacity="0.32"/>
</linearGradient>
<linearGradient id="paint7_linear_1569_2491" x1="5.09976" y1="-8.17194" x2="-3.91963" y2="-6.41802" gradientUnits="userSpaceOnUse">
<stop stop-color="#D39CFF"/>
<stop offset="0.549209" stop-color="#B4C5FE" stop-opacity="0.852278"/>
<stop offset="0.856527" stop-color="#93F1FE" stop-opacity="0.695417"/>
<stop offset="1" stop-color="#F0DEFF" stop-opacity="0.32"/>
</linearGradient>
<linearGradient id="paint8_linear_1569_2491" x1="5.09976" y1="-8.17194" x2="-3.91963" y2="-6.41802" gradientUnits="userSpaceOnUse">
<stop stop-color="#D39CFF"/>
<stop offset="0.549209" stop-color="#B4C5FE" stop-opacity="0.852278"/>
<stop offset="0.856527" stop-color="#93F1FE" stop-opacity="0.695417"/>
<stop offset="1" stop-color="#F0DEFF" stop-opacity="0.32"/>
</linearGradient>
<linearGradient id="paint9_linear_1569_2491" x1="5.09976" y1="-8.17194" x2="-3.91963" y2="-6.41802" gradientUnits="userSpaceOnUse">
<stop stop-color="#D39CFF"/>
<stop offset="0.549209" stop-color="#B4C5FE" stop-opacity="0.852278"/>
<stop offset="0.856527" stop-color="#93F1FE" stop-opacity="0.695417"/>
<stop offset="1" stop-color="#F0DEFF" stop-opacity="0.32"/>
</linearGradient>
<linearGradient id="paint10_linear_1569_2491" x1="5.09976" y1="-8.17194" x2="-3.91963" y2="-6.41802" gradientUnits="userSpaceOnUse">
<stop stop-color="#D39CFF"/>
<stop offset="0.549209" stop-color="#B4C5FE" stop-opacity="0.852278"/>
<stop offset="0.856527" stop-color="#93F1FE" stop-opacity="0.695417"/>
<stop offset="1" stop-color="#F0DEFF" stop-opacity="0.32"/>
</linearGradient>
<linearGradient id="paint11_linear_1569_2491" x1="333.931" y1="31.057" x2="273.599" y2="-39.0594" gradientUnits="userSpaceOnUse">
<stop stop-color="#D39CFF"/>
<stop offset="0.549209" stop-color="#B4C5FE" stop-opacity="0.852278"/>
<stop offset="0.856527" stop-color="#93F1FE" stop-opacity="0.695417"/>
<stop offset="1" stop-color="#F0DEFF" stop-opacity="0.32"/>
</linearGradient>
<linearGradient id="paint12_linear_1569_2491" x1="167.894" y1="33.4446" x2="150.343" y2="36.713" gradientUnits="userSpaceOnUse">
<stop stop-color="#D39CFF"/>
<stop offset="0.549209" stop-color="#B4C5FE" stop-opacity="0.852278"/>
<stop offset="0.856527" stop-color="#93F1FE" stop-opacity="0.695417"/>
<stop offset="1" stop-color="#F0DEFF" stop-opacity="0.32"/>
</linearGradient>
<linearGradient id="paint13_linear_1569_2491" x1="18.5328" y1="-29.6973" x2="-14.2442" y2="-23.3235" gradientUnits="userSpaceOnUse">
<stop stop-color="#D39CFF"/>
<stop offset="0.549209" stop-color="#B4C5FE" stop-opacity="0.852278"/>
<stop offset="0.856527" stop-color="#93F1FE" stop-opacity="0.695417"/>
<stop offset="1" stop-color="#F0DEFF" stop-opacity="0.32"/>
</linearGradient>
<linearGradient id="paint14_linear_1569_2491" x1="215.426" y1="42.1706" x2="162.31" y2="58.7056" gradientUnits="userSpaceOnUse">
<stop stop-color="#D39CFF"/>
<stop offset="0.549209" stop-color="#B4C5FE" stop-opacity="0.852278"/>
<stop offset="0.856527" stop-color="#93F1FE" stop-opacity="0.695417"/>
<stop offset="1" stop-color="#F0DEFF" stop-opacity="0.32"/>
</linearGradient>
<linearGradient id="paint15_linear_1569_2491" x1="18.5328" y1="-29.6973" x2="-14.2442" y2="-23.3235" gradientUnits="userSpaceOnUse">
<stop stop-color="#D39CFF"/>
<stop offset="0.549209" stop-color="#B4C5FE" stop-opacity="0.852278"/>
<stop offset="0.856527" stop-color="#93F1FE" stop-opacity="0.695417"/>
<stop offset="1" stop-color="#F0DEFF" stop-opacity="0.32"/>
</linearGradient>
<linearGradient id="paint16_linear_1569_2491" x1="215.426" y1="20.4658" x2="162.311" y2="37.0015" gradientUnits="userSpaceOnUse">
<stop stop-color="#D39CFF"/>
<stop offset="0.549209" stop-color="#B4C5FE" stop-opacity="0.852278"/>
<stop offset="0.856527" stop-color="#93F1FE" stop-opacity="0.695417"/>
<stop offset="1" stop-color="#F0DEFF" stop-opacity="0.32"/>
</linearGradient>
<linearGradient id="paint17_linear_1569_2491" x1="200.668" y1="91.7277" x2="196.809" y2="54.8109" gradientUnits="userSpaceOnUse">
<stop stop-color="#8307F3" stop-opacity="0.03"/>
<stop offset="0.784554" stop-color="#499DF1" stop-opacity="0.26"/>
</linearGradient>
<linearGradient id="paint18_linear_1569_2491" x1="200.005" y1="110.457" x2="196.258" y2="73.5173" gradientUnits="userSpaceOnUse">
<stop stop-color="#ACFCD6"/>
<stop offset="0.708333" stop-color="#DEECFF" stop-opacity="0.63"/>
<stop offset="0.784554" stop-color="#DDEEFF" stop-opacity="0.26"/>
</linearGradient>
<linearGradient id="paint19_linear_1569_2491" x1="9.35619" y1="-3.5281" x2="-0.84846" y2="4.90456" gradientUnits="userSpaceOnUse">
<stop stop-color="#D39CFF"/>
<stop offset="0.549209" stop-color="#B4C5FE" stop-opacity="0.852278"/>
<stop offset="0.856527" stop-color="#93F1FE" stop-opacity="0.695417"/>
<stop offset="1" stop-color="#F0DEFF" stop-opacity="0.32"/>
</linearGradient>
<linearGradient id="paint20_linear_1569_2491" x1="9.35619" y1="-3.5281" x2="-0.84846" y2="4.90456" gradientUnits="userSpaceOnUse">
<stop stop-color="#D39CFF"/>
<stop offset="0.549209" stop-color="#B4C5FE" stop-opacity="0.852278"/>
<stop offset="0.856527" stop-color="#93F1FE" stop-opacity="0.695417"/>
<stop offset="1" stop-color="#F0DEFF" stop-opacity="0.32"/>
</linearGradient>
<linearGradient id="paint21_linear_1569_2491" x1="9.35619" y1="-3.5281" x2="-0.84846" y2="4.90456" gradientUnits="userSpaceOnUse">
<stop stop-color="#D39CFF"/>
<stop offset="0.549209" stop-color="#B4C5FE" stop-opacity="0.852278"/>
<stop offset="0.856527" stop-color="#93F1FE" stop-opacity="0.695417"/>
<stop offset="1" stop-color="#F0DEFF" stop-opacity="0.32"/>
</linearGradient>
<linearGradient id="paint22_linear_1569_2491" x1="220.539" y1="52.7234" x2="202.988" y2="55.9917" gradientUnits="userSpaceOnUse">
<stop stop-color="#D39CFF"/>
<stop offset="0.549209" stop-color="#B4C5FE" stop-opacity="0.852278"/>
<stop offset="0.856527" stop-color="#93F1FE" stop-opacity="0.695417"/>
<stop offset="1" stop-color="#F0DEFF" stop-opacity="0.32"/>
</linearGradient>
<linearGradient id="paint23_linear_1569_2491" x1="2.85856" y1="-4.58061" x2="-2.19706" y2="-3.59749" gradientUnits="userSpaceOnUse">
<stop stop-color="#D39CFF"/>
<stop offset="0.549209" stop-color="#B4C5FE" stop-opacity="0.852278"/>
<stop offset="0.856527" stop-color="#93F1FE" stop-opacity="0.695417"/>
<stop offset="1" stop-color="#F0DEFF" stop-opacity="0.32"/>
</linearGradient>
<linearGradient id="paint24_linear_1569_2491" x1="2.85856" y1="-4.58061" x2="-2.19706" y2="-3.59749" gradientUnits="userSpaceOnUse">
<stop stop-color="#D39CFF"/>
<stop offset="0.549209" stop-color="#B4C5FE" stop-opacity="0.852278"/>
<stop offset="0.856527" stop-color="#93F1FE" stop-opacity="0.695417"/>
<stop offset="1" stop-color="#F0DEFF" stop-opacity="0.32"/>
</linearGradient>
<linearGradient id="paint25_linear_1569_2491" x1="2.85856" y1="-4.58061" x2="-2.19706" y2="-3.59749" gradientUnits="userSpaceOnUse">
<stop stop-color="#D39CFF"/>
<stop offset="0.549209" stop-color="#B4C5FE" stop-opacity="0.852278"/>
<stop offset="0.856527" stop-color="#93F1FE" stop-opacity="0.695417"/>
<stop offset="1" stop-color="#F0DEFF" stop-opacity="0.32"/>
</linearGradient>
</defs>
</svg>
